<?xml version="1.0" encoding="UTF-8" standalone="no"?>
<!-- Created with Inkscape (http://www.inkscape.org/) -->

<svg
   width="512"
   height="512"
   viewBox="0 0 135.46667 135.46667"
   version="1.1"
   id="svg1"
   inkscape:version="1.4 (e7c3feb1, 2024-10-09)"
   sodipodi:docname="Robert glasses.svg"
   inkscape:export-filename="Robert glasses.png"
   inkscape:export-xdpi="96"
   inkscape:export-ydpi="96"
   xmlns:inkscape="http://www.inkscape.org/namespaces/inkscape"
   xmlns:sodipodi="http://sodipodi.sourceforge.net/DTD/sodipodi-0.dtd"
   xmlns="http://www.w3.org/2000/svg"
   xmlns:svg="http://www.w3.org/2000/svg">
  <sodipodi:namedview
     id="namedview1"
     pagecolor="#ffffff"
     bordercolor="#999999"
     borderopacity="1"
     inkscape:showpageshadow="2"
     inkscape:pageopacity="0"
     inkscape:pagecheckerboard="true"
     inkscape:deskcolor="#d1d1d1"
     inkscape:document-units="px"
     inkscape:zoom="1.5"
     inkscape:rotation="1"
     inkscape:cx="266.59004"
     inkscape:cy="203.37834"
     inkscape:window-width="1608"
     inkscape:window-height="971"
     inkscape:window-x="69"
     inkscape:window-y="39"
     inkscape:window-maximized="0"
     inkscape:current-layer="layer1" />
  <defs
     id="defs1" />
  <g
     inkscape:label="Layer 1"
     inkscape:groupmode="layer"
     id="layer1">
    <ellipse
       style="fill:#28220b;stroke-width:0.264583"
       id="path1"
       cx="50.805176"
       cy="45.334122"
       rx="4.4233499"
       ry="4.3111882" />
    <ellipse
       style="fill:#28220b;stroke-width:0.264583"
       id="path1-2"
       cx="88.322876"
       cy="44.116581"
       rx="4.4233499"
       ry="4.3111882" />
    <path
       style="fill:#000000;stroke-width:0.264583"
       id="path20"
       d="m 25.400782,59.296391 c 0.03931,0.118386 0.0722,0.239102 0.117939,0.355153 0.108639,0.275622 0.233999,0.544412 0.344912,0.819127 0.329759,0.816763 1.058987,2.722829 1.288312,3.354646 0.724804,1.996919 1.19,3.442812 1.868648,5.480762 1.312022,4.057071 2.807436,8.05646 4.677344,11.892196 1.028351,2.109454 1.295242,2.493555 2.436943,4.465225 1.475171,2.384742 3.317163,4.509603 5.542256,6.223426 1.485223,1.143952 2.026663,1.390917 3.652062,2.343052 1.624558,0.861743 3.216937,1.787094 4.87367,2.585225 1.081077,0.520811 3.507394,1.248434 4.631942,1.542831 1.542788,0.403886 3.591782,0.820348 5.168551,1.067646 0.856408,0.134319 1.719114,0.224862 2.578674,0.337294 4.639712,0.420556 9.337781,0.106243 13.914504,-0.745588 0.999493,-0.186028 1.987987,-0.426934 2.981979,-0.640403 4.068762,-1.026295 8.102716,-2.329214 11.888134,-4.160515 2.462615,-1.191355 3.181392,-1.717542 5.497378,-3.149055 2.49883,-1.685602 4.81185,-3.621645 6.73573,-5.952712 1.05663,-1.280258 2.29092,-3.126087 3.11162,-4.580792 0.41819,-0.741252 0.77,-1.518047 1.155,-2.277071 0.95802,-2.291119 1.77159,-4.64644 2.35685,-7.061565 0.52322,-2.159061 0.8462,-4.354658 1.15759,-6.551319 0.37336,-2.625405 0.60786,-5.263491 0.76655,-7.909198 0.0454,-0.68916 0.0816,-1.378839 0.1111,-2.06883 0,0 -3.50885,-1.779545 -3.50885,-1.779545 v 0 c 0.0557,0.715653 0.079,1.433388 0.0902,2.151012 0.004,2.688858 -0.16793,5.373818 -0.41749,8.050486 -0.18468,1.550794 -0.30023,2.708203 -0.57812,4.255278 -0.57456,3.198579 -1.46597,6.347709 -2.75446,9.333579 -0.96138,1.974887 -1.23604,2.697149 -2.46041,4.556654 -0.51765,0.786167 -1.06039,1.558412 -1.65577,2.287477 -1.888764,2.312866 -4.175587,4.240996 -6.635675,5.917073 -0.884806,0.548746 -1.749219,1.131829 -2.654422,1.646237 -4.572166,2.598278 -9.595358,4.339821 -14.693524,5.561704 -1.000734,0.202123 -1.996742,0.429236 -3.002201,0.606364 -4.598607,0.810125 -9.30139,1.078288 -13.951929,0.608904 -0.854477,-0.115253 -1.712082,-0.209307 -2.563432,-0.345755 -1.727898,-0.276931 -3.477487,-0.641974 -5.164122,-1.109559 -0.825135,-0.228751 -1.64334,-0.484341 -2.451528,-0.767194 -0.750274,-0.262583 -1.435574,-0.746149 -2.221053,-0.868135 -0.332901,-0.0517 0.5192,0.429435 0.778801,0.644152 C 46.773972,94.477025 46.29257,94.270967 44.790859,93.143826 42.52716,91.444757 40.629928,89.339123 39.08518,86.971999 37.917523,85.070172 37.51878,84.497457 36.472856,82.461234 34.525549,78.670194 32.986253,74.68545 31.771477,70.602699 30.80851,67.418743 29.857621,64.232239 28.960779,61.029164 Z" />
    <path
       style="fill:#000000;stroke-width:0.264583"
       id="path31"
       d="m 10.104753,11.770896 c 0.30687,2.354341 0.331461,4.737883 0.429275,7.107799 0.124431,4.827814 0.168202,9.656938 0.304641,14.484574 0.169333,5.164566 0.670333,10.310495 1.252179,15.442615 0.649451,5.20178 1.484927,10.37874 2.522191,15.5169 0.622538,3.100978 1.287095,6.194807 2.11723,9.247802 0.504953,1.857071 0.634705,2.209527 1.204888,4.02427 0.222957,0.629391 0.437602,1.26179 0.668873,1.888175 0.510067,1.381485 0.7762,2.053985 1.41511,3.377161 0.728368,1.508445 1.560674,2.954226 2.424525,4.387392 1.800684,2.846197 3.872765,5.503783 5.882701,8.20166 0.34612,0.462928 0.690611,0.927079 1.038358,1.38879 0.679423,0.902081 1.244261,1.653797 1.961912,2.523104 1.00104,1.212592 2.067269,2.361752 3.14834,3.502322 1.843609,1.90022 3.933426,3.52773 6.095532,5.04488 0.280178,0.18114 0.55262,0.37485 0.840537,0.54342 1.341564,0.78545 2.687343,1.56413 4.046884,2.31805 1.185825,0.65759 2.68188,1.13719 3.970859,1.5511 2.485675,0.85459 5.075901,1.30872 7.655494,1.77045 3.142117,0.53929 6.301052,0.97543 9.454877,1.44003 1.668243,0.20886 3.360455,0.32958 5.042636,0.24381 0.373631,-0.019 2.243579,-0.19574 2.595507,-0.22825 0.471062,-0.0502 0.943136,-0.0917 1.413185,-0.15067 1.067234,-0.13389 2.390965,-0.35346 3.440734,-0.51346 1.793843,-0.27339 3.588843,-0.53797 5.385832,-0.78973 2.529099,-0.28377 5.036357,-0.72343 7.545303,-1.14397 1.550919,-0.28615 3.118313,-0.48526 4.665297,-0.79338 0.734542,-0.1463 1.116264,-0.25175 1.829388,-0.43192 0.957889,-0.28053 1.987879,-0.44737 2.878769,-0.92331 0.16243,-0.0868 0.31311,-0.19399 0.46967,-0.29098 1.58344,-1.20346 2.61686,-2.9402 3.74761,-4.54155 1.70705,-2.44082 3.47549,-4.83773 5.22605,-7.247295 0.28412,-0.382275 0.5666,-0.765784 0.85237,-1.146823 0.61478,-0.819719 0.95611,-1.244868 1.54781,-2.072664 0.73367,-1.026446 1.42757,-2.082083 2.13682,-3.125404 1.25047,-1.842693 2.30645,-3.801258 3.29326,-5.794336 0.65693,-1.412089 1.34988,-2.810351 1.88533,-4.275105 0.36003,-0.984891 0.41381,-1.246561 0.70455,-2.267789 0.70436,-2.489997 1.17427,-5.033891 1.61105,-7.581533 0.50958,-3.121162 0.88922,-6.261714 1.22567,-9.405646 0.30836,-4.334275 0.3367,-8.687025 0.22828,-13.029423 -0.13038,-3.059978 -0.26526,-6.12707 -0.67176,-9.165685 -0.0197,-0.147352 -0.56352,-3.654055 -0.60055,-3.893199 -0.4745,-3.10565 -1.2633,-6.148805 -1.9138,-9.219255 -0.3529,-1.706768 -0.68041,-3.419112 -1.05316,-5.12171 -0.12291,-0.711395 -0.32096,-1.403064 -0.53753,-2.090377 -0.24559,-0.804833 -0.57102,-1.577061 -0.93211,-2.335738 -0.25151,-0.538828 -0.4814,-1.083279 -0.802,-1.58549 -0.30019,-0.488462 -0.61128,-0.969963 -0.92201,-1.451791 -0.33083,-0.510378 -0.68715,-1.004624 -1.12169,-1.431251 -2.84616,-2.380332 -4.57098,-2.65647 -7.80737,-3.201962 C 104.61391,9.9359577 101.30142,9.4747321 97.971332,9.198561 97.135892,9.1292759 96.298782,9.0818155 95.462508,9.0234428 90.367196,8.7220607 85.265887,8.9471248 80.179399,9.2821574 76.060633,9.6389565 71.947618,10.0579 67.833861,10.467397 c -3.15028,0.321629 -6.306606,0.567631 -9.465017,0.791443 -2.280322,0.11932 -4.555593,0.331805 -6.837291,0.426375 -1.081386,0.04482 -2.276896,0.0565 -3.361097,0.07321 -2.577495,0.04611 -5.151049,-0.06168 -7.722537,-0.220065 -1.366946,-0.0759 -2.732043,-0.187197 -4.094986,-0.316074 -1.625944,-0.117737 -3.259203,-0.18382 -4.889542,-0.202497 -1.823392,0.01459 -3.646324,0.06455 -5.46916,0.109826 -1.579819,0.03437 -3.159938,0.04383 -4.740016,0.05591 -1.162479,0.02219 -2.324938,0.0419 -3.487561,0.05734 -0.764358,-0.0097 -1.52426,0.09101 -2.284937,0.153347 -0.702171,0.08518 -1.403818,0.170216 -2.110359,0.220778 -0.822737,0.118137 -1.651644,0.184582 -2.481277,0.22902 -0.280808,0.0026 -0.536973,0.172356 -0.809181,0.202002 -0.083272,0.01731 -0.1633748,-7.68e-4 -0.2463253,-0.0047 -0.032491,-0.0011 -0.06483,-0.0035 -0.09665,-0.0099 0,0 3.2309083,2.353631 3.2309083,2.353631 v 0 c 0.03314,-0.0057 0.06659,-0.009 0.100065,-0.01226 0.101585,-0.01186 0.198165,-0.04076 0.293554,-0.07767 0.225714,-0.09461 0.465133,-0.151442 0.708209,-0.179519 0.818592,-0.09094 1.637488,-0.180187 2.458677,-0.244717 0.715725,-0.06401 1.429318,-0.149566 2.145764,-0.205673 0.727781,-0.0892 1.456927,-0.180523 2.191619,-0.180237 1.158842,-0.02506 2.317694,-0.04552 3.476588,-0.06582 1.546413,-0.04614 3.092676,-0.09788 4.639491,-0.129863 1.834074,-0.03237 3.668213,-0.08259 5.502715,-0.06842 1.635281,0.03337 3.272848,0.07842 4.900689,0.247606 1.353664,0.130138 2.709744,0.252142 4.0703,0.274529 2.512613,0.06958 5.025872,0.07413 7.539337,0.05657 3.404446,-0.100223 6.804781,-0.282421 10.202563,-0.516081 3.151857,-0.204856 6.302383,-0.432764 9.437717,-0.825189 4.061299,-0.421993 8.108741,-0.98226 12.182084,-1.288313 5.062535,-0.359314 10.144892,-0.612808 15.216265,-0.24963 0.8481,0.07081 1.697243,0.130113 2.5443,0.212437 3.39092,0.329553 6.76301,0.864034 10.10916,1.497499 0.89567,0.195655 1.87036,0.386704 2.75881,0.64866 0.27023,0.07968 0.5373,0.171304 0.79888,0.275949 0.19356,0.07744 0.74234,0.378107 0.56442,0.269444 -5.06606,-3.094029 -3.75436,-2.247885 -2.70663,-1.567276 0.15526,0.123324 0.34056,0.257661 0.47156,0.410023 0.0622,0.0724 0.10737,0.157949 0.16384,0.234937 0.17257,0.235294 0.38028,0.442358 0.52492,0.697946 0.3303,0.458983 0.59628,0.960376 0.90362,1.43481 0.33141,0.499438 0.62956,1.008217 0.86281,1.563075 0.37955,0.733765 0.70803,1.488237 0.95156,2.278643 0.21725,0.686617 0.40582,1.383776 0.57853,2.082701 0.47803,1.742554 0.96238,3.484585 1.34924,5.250459 0.65295,3.091791 1.44087,6.153311 2.02992,9.25876 0.76575,4.333121 1.39066,8.695791 1.47256,13.104162 0.0341,4.293277 -0.0465,8.589894 -0.45694,12.866714 -0.31356,3.12904 -0.75696,6.243246 -1.29021,9.342412 -0.46829,2.52309 -0.93042,5.053041 -1.64003,7.522152 -0.26885,0.898723 -0.38999,1.353772 -0.7091,2.227871 -0.53071,1.453716 -1.18201,2.863191 -1.86298,4.251288 -0.98663,1.975345 -2.09151,3.887324 -3.25613,5.763038 -1.41686,2.172263 -2.92081,4.285403 -4.46293,6.370423 -1.76424,2.400403 -3.4608,4.850197 -5.23968,7.240117 -1.15276,1.53846 -2.29007,3.16853 -3.900923,4.26543 -1.009089,0.54282 -2.102723,0.88311 -3.20422,1.18917 -2.096281,0.57573 -4.239935,0.92156 -6.385201,1.26125 -2.473433,0.42331 -4.95359,0.80154 -7.427931,1.21889 -3.422645,0.5588 -6.849708,1.11229 -10.310762,1.37591 -2.518355,0.20396 -5.047679,0.30819 -7.559387,-0.0579 -3.156366,-0.42582 -6.312975,-0.85938 -9.443813,-1.4493 -2.597018,-0.48013 -5.194843,-0.99862 -7.695872,-1.86558 -1.039625,-0.36054 -2.072677,-0.72876 -3.073048,-1.19042 -0.976802,-0.45079 -2.992067,-1.59324 1.348017,0.87844 0.295786,0.16845 -0.578506,-0.35887 -0.867759,-0.53831 -2.215573,-1.50688 -4.367676,-3.11669 -6.253633,-5.03066 C 35.472501,101.89588 33.372563,99.442736 31.49163,96.814132 29.487689,94.134501 27.453805,91.470686 25.636072,88.659157 23.732629,85.595335 22.077308,82.467902 20.962743,79.020725 20.747584,78.365736 20.522768,77.713842 20.317266,77.05576 19.155382,73.335041 18.253721,69.538264 17.489762,65.71766 16.470251,60.581089 15.500524,55.427699 14.940459,50.217114 14.347275,45.096111 13.869228,39.959421 13.686454,34.805412 13.584251,30.002116 13.5268,25.196919 13.514693,20.39264 c 0.03795,-2.278632 0.101364,-4.557671 0.109524,-6.836219 z" />
    <path
       style="fill:#000000;stroke-width:0.264583"
       id="path32"
       d="m 10.681552,23.101136 c 0.361204,0.791982 0.848019,1.506149 1.357571,2.207867 0.557949,0.742245 1.21316,1.374076 1.993607,1.873355 1.574521,0.307168 2.724532,1.765634 4.231675,2.33471 0.822382,0.310521 1.704748,0.502126 2.556743,0.710679 1.652806,0.437745 3.340751,0.673317 5.044166,0.779087 1.008686,0.02551 2.028919,0.03926 3.035712,-0.04925 1.061934,-0.09336 2.123,-0.281504 3.171235,-0.469048 1.934162,-0.337566 3.822681,-0.87706 5.707623,-1.416984 1.975221,-0.585766 3.983967,-1.03573 5.995541,-1.475042 2.143053,-0.500618 4.324218,-0.775726 6.502858,-1.062738 1.341519,-0.133051 2.686404,-0.375357 4.038422,-0.30446 0.486141,0.01463 0.912845,0.248159 1.334985,0.466681 1.197115,0.67704 3.32404,1.778905 -2.116103,-1.221726 -0.144624,-0.07977 0.272587,0.186644 0.406654,0.283108 0.15504,0.111554 0.307057,0.227255 0.460584,0.340882 1.238358,0.955191 2.489472,1.893911 3.740454,2.832494 1.422247,1.014402 2.799408,2.090087 4.21744,3.110005 0.660622,0.494951 1.381614,0.900028 2.052939,1.378837 1.198116,0.813657 0.77121,0.528822 3.639079,2.015299 0.107006,0.05546 0.216837,-0.105299 0.324843,-0.158787 0.417398,-0.206703 0.769503,-0.311126 1.224166,-0.472882 1.888911,-0.629065 3.807873,-1.169429 5.670161,-1.875917 1.30257,-0.58538 2.56631,-1.251328 3.85113,-1.87398 1.290992,-0.643591 2.618668,-1.205571 3.965038,-1.721541 1.550466,-0.565737 3.115,-1.087207 4.696986,-1.557123 2.109015,-0.623287 4.281184,-0.994402 6.451966,-1.325447 1.613418,-0.215384 3.245405,-0.331429 4.873484,-0.269703 0.86568,0.03282 1.336489,0.08976 2.194369,0.171443 1.86404,0.192866 3.69944,0.574651 5.52458,0.988478 1.37144,0.287788 2.74701,0.568849 4.13027,0.795801 0.95811,0.23872 1.94352,0.237929 2.91999,0.317066 0.74996,0.0588 1.49984,0.13058 2.25219,0.148963 0.41234,0.01889 0.8149,-0.09636 1.22163,-0.149897 0.30573,0.0035 0.49215,-0.06574 0.76989,-0.166793 0.0853,-0.06498 0.20466,-0.02522 0.29604,-0.05469 0.0739,-0.02381 0.13849,-0.07019 0.20888,-0.102904 0.2151,-0.06743 0.42951,-0.15943 0.6211,-0.280286 0.13234,-0.08229 0.0691,-0.04275 0.18964,-0.118539 0,0 -3.3379,-2.14881 -3.3379,-2.14881 v 0 c -0.10464,0.06643 -0.0492,0.03323 -0.16664,0.09886 -0.19965,0.08383 -0.3962,0.170053 -0.60203,0.237905 -0.16332,0.05053 -0.33965,0.05983 -0.49462,0.144578 -0.23247,0.07569 -0.47574,0.07168 -0.71548,0.118543 -0.38113,0.06837 -0.76134,0.146556 -1.15157,0.111755 -0.72723,-0.02328 -1.45387,-0.05745 -2.17921,-0.116749 -0.96937,-0.06249 -1.93549,-0.148245 -2.8901,-0.336786 -1.34998,-0.21546 -2.69518,-0.46752 -4.03251,-0.750425 -1.81673,-0.403731 -3.64693,-0.750843 -5.503649,-0.911204 -0.912979,-0.07288 -1.268552,-0.115459 -2.190062,-0.131083 -1.638041,-0.02777 -3.276121,0.118 -4.899951,0.3197 -2.206114,0.328924 -4.410311,0.730707 -6.564995,1.31084 -1.592157,0.485423 -3.183017,0.974265 -4.740966,1.563006 -1.360104,0.53789 -2.716199,1.09012 -4.037653,1.717982 -1.240282,0.658815 -2.479842,1.324726 -3.768691,1.884849 -1.837621,0.741508 -3.728175,1.344583 -5.640861,1.861267 -0.47231,0.123052 -0.939197,0.269624 -1.417346,0.367565 -0.152959,0.03133 -0.274151,-0.081 -0.2041,-0.04096 3.222191,1.84187 4.446593,2.48117 3.182618,1.819159 -0.245637,-0.142542 -0.467622,-0.315725 -0.708983,-0.465654 -0.512826,-0.318563 -1.046581,-0.605134 -1.530821,-0.968809 -1.443432,-0.994717 -2.807063,-2.099545 -4.240597,-3.108687 -1.232839,-0.908807 -2.445416,-1.846477 -3.649691,-2.792807 -0.273108,-0.211897 -0.525637,-0.45406 -0.821317,-0.633114 -1.47469,-0.89302 -2.977555,-1.837821 -4.534998,-2.618195 -0.461301,-0.205023 -0.912128,-0.371599 -1.42774,-0.31899 -1.301607,0.06843 -2.583172,0.335415 -3.876624,0.48262 -1.08851,0.147234 -2.183146,0.270516 -3.267044,0.449515 -0.80377,0.132738 -1.324663,0.255051 -2.125041,0.415699 -0.375684,0.0754 -0.752046,0.147391 -1.128069,0.221086 -2.029984,0.433293 -4.05189,0.901524 -6.049143,1.469371 -1.862381,0.548314 -3.741698,1.056357 -5.652635,1.405847 -2.036675,0.346575 -4.095333,0.583412 -6.164952,0.435224 -1.71652,-0.16002 -3.416129,-0.427281 -5.080853,-0.886473 -0.667409,-0.175779 -1.33995,-0.345128 -1.990744,-0.577443 -1.283504,-0.458173 -3.567827,-1.871129 1.790394,1.208207 -0.804575,-0.437224 -1.476944,-1.015098 -2.052006,-1.731714 -0.496046,-0.654218 -1.005246,-1.315561 -1.299768,-2.09003 z" />
    <path
       style="fill:#000000;stroke-width:0.264583"
       id="path34"
       d="m 122.39719,32.301826 c 0.0695,0.02556 0.13719,0.05636 0.20836,0.07666 0.75732,0.21598 -0.18075,-0.09688 0.61685,0.166854 0.3411,0.11279 0.66707,0.258313 0.99909,0.394698 0.34076,0.144031 0.67727,0.299781 1.01053,0.460401 0.0957,0.04615 0.37574,0.198692 0.28373,0.145484 -3.70691,-2.143715 -4.02092,-2.339909 -2.79964,-1.591196 0.25096,0.215659 0.58724,0.344858 0.81861,0.584644 0.19752,0.204716 0.32888,0.456581 0.47438,0.697016 0.49979,0.885381 0.87024,1.835124 1.24488,2.777948 0.36813,0.951727 0.71538,1.912194 1.05066,2.876045 0.36743,1.015806 0.52101,2.090274 0.7102,3.14925 0.17547,0.850715 0.2601,1.706399 0.20672,2.573298 -0.0396,0.791647 -0.18684,1.566717 -0.41104,2.32514 -0.23328,0.617813 -0.4887,1.22985 -0.78551,1.820167 -0.18383,0.384733 -0.39629,0.756414 -0.62978,1.113131 -0.33453,0.443847 -0.79241,0.753875 -1.24796,1.059619 -0.39337,0.214569 -0.79686,0.420272 -1.22269,0.563221 -0.31065,0.08745 -0.59031,0.252492 -0.90282,0.34398 -0.14626,0.0742 -0.30229,0.124907 -0.45688,0.178083 0,0 3.27848,2.207996 3.27848,2.207996 v 0 c 0.14842,-0.05945 0.29598,-0.121415 0.44756,-0.172583 0.30526,-0.119763 0.60473,-0.253481 0.91569,-0.357923 0.42234,-0.194831 0.83782,-0.410279 1.22964,-0.661019 0.49323,-0.339267 0.98126,-0.700926 1.35386,-1.175586 0.24335,-0.370642 0.4651,-0.758584 0.64077,-1.166021 0.28701,-0.618834 0.53079,-1.258848 0.77573,-1.895028 0.24318,-0.786234 0.415,-1.581042 0.44389,-2.407061 0.065,-0.901969 0.0436,-1.796441 -0.19122,-2.676593 -0.0565,-0.271045 -0.17999,-0.852562 -0.22547,-1.116047 -0.12013,-0.696011 -0.18183,-1.405144 -0.43672,-2.071198 -0.33889,-0.976903 -0.71381,-1.942066 -1.08453,-2.907184 -0.36093,-0.95032 -0.70145,-1.91371 -1.18193,-2.812269 -0.14789,-0.273641 -0.35182,-0.788385 -0.56204,-1.006452 -0.17195,-0.178361 -0.45632,-0.233323 -0.62015,-0.424529 -1.60423,-1.144402 -3.35724,-2.083914 -5.17656,-2.835698 -0.62439,-0.251524 -1.26473,-0.450678 -1.90969,-0.642343 z" />
    <path
       style="fill:#000000;stroke-width:0.666667"
       d="m 235.53844,115.97971 c -6.19735,-4.6192 -12.78406,-9.62357 -14.63713,-11.12083 -4.37663,-3.53625 -19.44439,-12.605419 -23.2049,-13.966857 -2.76497,-1.001017 -3.61249,-0.969161 -15.48528,0.582043 -20.04798,2.61931 -32.48861,5.143596 -54.06124,10.969374 -27.77337,7.50032 -40.137149,8.03625 -60.976938,2.64314 -5.805149,-1.5023 -6.132812,-1.68986 -8.683439,-4.97046 -1.457855,-1.875086 -2.979178,-4.20667 -3.380716,-5.181299 -0.401538,-0.974628 -1.436051,-2.078954 -2.298917,-2.454057 l -1.568847,-0.682007 0.148698,-12.844079 c 0.202106,-17.457249 0.577124,-25.186769 1.222548,-25.198035 0.297862,-0.0052 6.018307,-0.582134 12.712098,-1.282076 9.932716,-1.038624 18.490692,-1.319697 46.543213,-1.528634 18.90497,-0.140805 36.32785,0.02341 38.71751,0.364922 2.38966,0.341511 12.74922,0.799093 23.02125,1.016847 28.06429,0.59493 61.93026,-1.404409 104.90789,-6.193427 32.75709,-3.650139 43.70449,-4.459883 65.25903,-4.826997 19.09301,-0.32519 32.09713,0.362316 48.69318,2.574325 11.15036,1.486178 31.9251,5.233583 33.50425,6.043588 1.36844,0.701921 6.53998,8.995623 9.5065,15.245763 1.88013,3.961226 10.45463,34.153349 9.87109,34.75762 -0.13369,0.138436 -1.63184,-0.617562 -3.32922,-1.680004 -2.71161,-1.697277 -3.31827,-1.837811 -4.99883,-1.157974 -7.97791,3.227324 -17.69776,2.463166 -51.95977,-4.084973 -4.39039,-0.839089 -11.60828,-1.800876 -16.03975,-2.137304 -24.2596,-1.841736 -60.2673,6.696744 -86.71461,20.562581 -8.43071,4.42006 -14.68325,6.9212 -25.32297,10.1297 -5.11083,1.54122 -9.4914,2.80568 -9.7346,2.80993 -0.24321,0.004 -5.51275,-3.77163 -11.7101,-8.39082 z"
       id="path35"
       transform="scale(0.26458334)" />
    <path
       style="fill:#000000;stroke-width:0.666667"
       d="m 243.14848,120.98325 c -2.04295,-1.48802 -8.88257,-6.56351 -15.19916,-11.27888 -10.72047,-8.00289 -21.84596,-15.199978 -28.46582,-18.414571 -3.39513,-1.64867 -6.18691,-1.661307 -17.86402,-0.08086 -19.27053,2.608179 -28.20353,4.39998 -50.82981,10.195561 -26.17691,6.70505 -35.487609,7.91293 -48.231476,6.25708 -8.955705,-1.16365 -18.766778,-3.60876 -21.037085,-5.24287 -0.92345,-0.66467 -2.671701,-2.670208 -3.885001,-4.456749 -2.387615,-3.515672 -4.415295,-5.864665 -5.406865,-6.263653 -0.646846,-0.260277 -0.560111,-26.051586 0.113266,-33.68075 l 0.36053,-4.084692 12.439761,-1.065159 c 13.899169,-1.190121 80.6156,-1.884777 90.78712,-0.945281 3.12218,0.28838 14.67896,0.57614 25.68174,0.639466 28.78986,0.165697 53.67413,-1.479827 104.56192,-6.914378 57.28905,-6.118172 89.40821,-5.364305 132.97783,3.121118 l 6.70924,1.306662 2.37686,3.447674 c 4.01347,5.821625 7.42881,12.9046 9.57023,19.84741 3.18776,10.335243 7.07013,25.009493 6.71427,25.378 -0.17693,0.183209 -1.44252,-0.332862 -2.81243,-1.146824 -2.46403,-1.464047 -2.53541,-1.467195 -6.65063,-0.293353 -7.56364,2.157484 -15.39457,1.571295 -41.68857,-3.120625 -20.53695,-3.664627 -26.33281,-4.191595 -38.3608,-3.487809 -22.93326,1.341877 -47.40114,8.060218 -70.97655,19.488603 -5.12743,2.48556 -11.55707,5.42868 -14.28808,6.54025 -5.26364,2.14239 -20.44201,6.94674 -21.97335,6.95513 -0.49977,0.003 -2.58017,-1.21249 -4.62312,-2.7005 z"
       id="path36"
       transform="scale(0.26458334)" />
    <path
       style="fill:#000000;stroke-width:0.666667"
       d="m 258.66746,437.07824 c -11.35789,-1.06807 -45.90773,-6.54698 -57.83554,-9.17155 -26.15998,-5.75618 -49.35539,-18.86561 -70.00688,-39.56604 -8.8322,-8.85313 -14.77958,-16.11526 -29.92625,-36.54179 C 83.642642,328.52752 75.811105,314.85435 69.605643,297.16381 59.132217,267.30615 48.607842,213.09178 44.257259,166.58631 43.520865,158.71463 42.675484,150.23274 42.378635,147.73768 l -0.539724,-4.53649 -2.807702,2.49485 c -3.590776,3.19065 -4.19412,4.49278 -6.219222,13.42221 -3.478094,15.33622 -3.349047,40.73688 0.283509,55.80414 1.538755,6.38251 4.488942,14.95154 6.385903,18.54831 1.236203,2.34393 2.881798,3.93516 6.773207,6.54946 5.70537,3.83293 5.380075,4.5843 -1.102093,2.54564 -11.529299,-3.62599 -16.200507,-8.48506 -20.472811,-21.29615 -4.698842,-14.09014 -6.651107,-28.02539 -6.336458,-45.22964 0.24792,-13.55573 2.049863,-26.23231 4.628165,-32.5589 1.46251,-3.58869 6.525647,-8.01209 11.30987,-9.88084 2.784844,-1.08778 2.930184,-1.07716 4.813344,0.35178 l 1.941794,1.47342 -0.429044,-34.47608 C 40.371398,81.987554 39.839729,61.791527 39.425886,56.069332 39.012043,50.347139 38.701727,45.617184 38.736294,45.558322 c 0.03457,-0.05886 5.556941,-0.680335 12.271941,-1.381052 8.927338,-0.931576 20.210143,-1.409445 41.975366,-1.777812 29.755169,-0.503594 34.316259,-0.392309 57.470429,1.402202 16.56091,1.283516 51.09371,0.688187 75.98871,-1.310009 17.81173,-1.429658 24.767,-2.077504 59.53999,-5.545835 23.98302,-2.392117 59.94009,-3.486234 76.67658,-2.333149 15.43378,1.063334 31.62711,3.09861 46.73187,5.873545 9.15311,1.681543 12.41073,2.594578 16.97406,4.757437 9.71122,4.60278 16.38822,12.324648 22.15789,25.625336 2.99696,6.908809 3.88157,10.150981 7.23734,26.525065 4.38538,21.39798 3.20194,18.7451 9.88105,22.14999 3.17433,1.61821 7.73758,4.294 10.14054,5.9462 5.02487,3.45493 5.89523,4.97448 11.66064,20.35826 6.34713,16.93598 7.47843,29.42712 3.62013,39.9715 -2.69107,7.35445 -5.10944,11.08917 -8.84381,13.6576 -4.24688,2.92091 -10.23065,5.25958 -11.16029,4.36183 -0.38951,-0.37615 -0.90056,-0.68055 -1.13566,-0.67644 -0.2351,0.004 -0.5162,5.93491 -0.62468,13.17957 -0.29829,19.92185 -2.26761,39.09477 -6.40075,62.3164 -3.84484,21.60181 -7.21847,32.42496 -15.14414,48.58469 -7.13093,14.53937 -12.40758,22.63536 -33.48065,51.36952 -5.94498,8.10626 -13.35726,18.38369 -16.47174,22.83872 -6.68459,9.56181 -11.97466,15.36474 -15.70975,17.23277 -5.17268,2.58701 -28.4923,7.31278 -54.20931,10.98564 -3.10939,0.44408 -13.73409,1.98611 -23.61046,3.42673 -26.74159,3.90069 -36.96738,4.79339 -45.60413,3.98121 z m 29.79295,-10.0132 c 6.01531,-0.87979 22.07517,-3.42513 35.68858,-5.65631 43.75862,-7.17185 48.66059,-8.86334 57.70772,-19.91285 4.97597,-6.07728 35.4301,-48.21065 40.42975,-55.93466 15.48333,-23.92038 22.99714,-41.63679 27.98348,-65.98081 7.07905,-34.561 9.67907,-65.20807 8.41109,-99.14371 -0.71639,-19.17326 -1.6175,-27.46099 -4.93855,-45.42116 -1.71594,-9.27976 -5.87955,-28.11516 -6.30282,-28.51278 -0.10036,-0.0943 -1.79292,0.17747 -3.76125,0.60388 -2.57013,0.55678 -5.97066,0.60458 -12.06534,0.16959 -7.66487,-0.54705 -14.57118,-1.7139 -38.79541,-6.5546 -10.60891,-2.119962 -28.94661,-2.374353 -40.01578,-0.55512 -20.75648,3.41137 -37.6303,8.92488 -58.53025,19.12473 -13.05641,6.37195 -33.59662,13.35804 -36.08906,12.27453 -2.20751,-0.95965 -2.77328,-0.8129 -1.22376,0.31741 0.71579,0.52214 1.12026,1.13696 0.89882,1.36627 -0.55302,0.57267 -9.76823,-4.34986 -16.31407,-8.71455 -5.75546,-3.83767 -7.6496,-5.21453 -23.97447,-17.4271 -5.9183,-4.42746 -11.34413,-7.988254 -12.47815,-8.188997 -3.83779,-0.67936 -26.65525,2.293367 -40.58058,5.286957 -4.74957,1.02104 -15.80366,3.74778 -24.56465,6.05942 -8.76099,2.31165 -19.10903,4.72017 -22.99566,5.35227 -13.39803,2.17899 -25.682574,1.45878 -40.581806,-2.37921 -6.298474,-1.62247 -8.577277,-2.58006 -12.857556,-5.40297 -4.418851,-2.9143 -11.593909,-6.72594 -12.627019,-6.70791 -0.663066,0.0116 1.457809,51.10069 2.641499,63.63026 2.60602,27.58518 4.565099,42.3133 8.538857,64.19408 8.839552,48.67341 17.058778,76.00345 29.366681,97.64822 7.311801,12.85858 25.309064,37.97349 38.769994,54.10295 12.51516,14.99619 26.9943,27.77242 36.44327,32.15711 11.32203,5.25387 29.65569,9.59733 58.83905,13.93969 8.45659,1.2583 16.428,2.41581 17.71426,2.57225 5.8673,0.7136 34.63651,-0.75265 45.26313,-2.30688 z M 45.872168,240.56939 c -1.320108,-0.82082 -2.202513,-0.80541 -1.666413,0.0291 0.232978,0.36266 0.930732,0.64593 1.550567,0.6295 0.971215,-0.0258 0.987226,-0.11678 0.115846,-0.65859 z M 472.15212,190.76988 c 3.37202,-2.66632 7.86381,-12.7674 8.72244,-19.61486 0.58628,-4.67555 0.49411,-6.60582 -0.6203,-12.99116 -1.40455,-8.04774 -5.95209,-21.88878 -9.82213,-29.89496 -2.14159,-4.43042 -2.64548,-5.00894 -4.97631,-5.71328 -1.4264,-0.43104 -3.14921,-1.253 -3.82849,-1.82659 -1.15974,-0.9793 -1.2098,-0.9428 -0.82099,0.5987 4.17786,16.56361 7.8168,44.45494 8.13464,62.34943 0.0863,4.85757 0.35353,8.82851 0.59389,8.82431 0.24035,-0.004 1.41811,-0.78341 2.61725,-1.73159 z M 252.75083,123.57854 c 10.05162,-2.70277 19.95293,-6.4517 28.92435,-10.95163 20.29925,-10.18181 36.70203,-15.642177 57.67371,-19.199157 18.74852,-3.179912 28.69172,-2.949276 50.02787,1.160414 17.97086,3.46148 22.16945,4.103278 31.06961,4.749308 6.76309,0.490903 8.83268,0.398369 13.44677,-0.601216 l 5.45341,-1.181418 2.91172,1.898869 c 1.60144,1.04438 3.25858,2.09209 3.68252,2.32827 1.63864,0.91284 -6.3352,-29.194165 -9.77092,-36.892228 -1.13537,-2.543922 -3.61061,-7.087159 -5.50054,-10.096084 L 427.23311,49.322897 421.39,48.065906 c -25.77808,-5.545468 -50.30874,-7.870846 -77.90144,-7.384647 -22.02895,0.388162 -32.31824,1.146188 -64.98594,4.7876 -55.02351,6.133377 -94.18947,7.720827 -128.23797,5.197663 -18.13531,-1.343918 -68.442961,-0.630973 -85.682703,1.214269 -6.039637,0.646448 -11.47715,1.187724 -12.083361,1.202834 -1.252515,0.03122 -1.502506,3.792509 -1.764571,26.549267 l -0.147912,12.844065 1.630359,0.708747 c 0.896697,0.389811 2.151935,1.813527 2.789417,3.163815 0.637482,1.350287 2.283786,3.701741 3.658453,5.225441 2.218124,2.45862 3.177723,2.9431 8.527099,4.30523 9.61254,2.44765 17.22263,3.38867 26.065407,3.22309 10.644662,-0.19932 19.536922,-1.71427 35.445552,-6.03875 18.27829,-4.968625 34.03113,-8.217293 51.12206,-10.542761 l 14.81607,-2.015941 4.20901,1.880797 c 6.33398,2.830351 16.63192,9.270295 23.95157,14.978415 3.59139,2.8007 10.02549,7.67921 14.29799,10.84115 4.2725,3.16193 7.87258,5.99998 8.00018,6.30677 0.34653,0.8332 1.68615,0.6696 7.65156,-0.93442 z"
       id="path37"
       transform="scale(0.26458334)" />
    <path
       style="fill:#000000;stroke-width:0.264583"
       id="path40"
       d="m 8.8950538,62.320224 c 0.4780288,0.34892 0.9084532,0.75654 1.3675682,1.128927 1.298181,0.963719 2.819276,1.699128 4.184596,2.486578 1.367278,0.819822 -4.232087,-2.329928 -3.141824,-1.808755 1.216111,0.581332 2.338801,1.340758 3.513271,2.00219 0.116382,0.06555 0.209865,0.03802 0.316128,0.124976 0.0797,0.07124 0.214132,0.05483 0.300355,0.09774 0.02902,0.01445 0.04101,0.05141 0.06772,0.06977 0.05513,0.03787 0.122183,0.05446 0.183018,0.08226 0.166614,0.04412 0.331931,0.04534 0.502251,0.04704 0.02381,-0.0021 0.05125,-0.019 0.07145,-0.0062 0.02095,0.01326 0.01057,0.05112 0.02773,0.06902 0.05106,0.05326 0.183998,0.08266 0.252713,0.113654 0.02471,-0.0024 0.04942,-0.0045 0.07413,-0.0068 0,0 -3.159739,-2.421422 -3.159739,-2.421422 v 0 c -0.01419,-0.01243 -0.02838,-0.02487 -0.04257,-0.03731 -0.147351,-0.05506 -0.270933,-0.102034 -0.426105,-0.07642 -0.143043,-0.02315 -0.281938,-0.07863 -0.404322,-0.155948 -0.182108,-0.09127 -0.36992,-0.146569 -0.550661,-0.244412 -0.147903,-0.03123 -0.07688,-0.0057 -0.206874,-0.07333 -0.03289,-0.01712 -0.130873,-0.06967 -0.09877,-0.05112 6.705316,3.875069 1.901447,1.078357 -0.360817,-0.206221 5.877454,3.406169 3.8013,2.230866 2.538268,1.446654 -0.469866,-0.340696 -0.901174,-0.7254 -1.332466,-1.113443 z" />
    <path
       style="fill:#f4d7d7;stroke-width:0.666667"
       d="m 241.51425,428.44892 c -2.20604,-0.32663 -10.32819,-1.52517 -18.04923,-2.66343 -24.03107,-3.54273 -40.59186,-7.33399 -53.22075,-12.18381 -11.18263,-4.29442 -28.04463,-19.07596 -43.07893,-37.76378 -6.1054,-7.58909 -19.45468,-25.7332 -26.29819,-35.74404 C 82.469619,313.18151 73.458911,287.00325 63.009517,230.10841 56.208536,193.07843 51.941388,149.84935 51.840658,116.96035 l -0.04437,-14.48748 3.35988,1.49175 c 1.847934,0.82046 5.181756,2.72937 7.408495,4.24201 5.216909,3.54389 7.12434,4.28458 16.516544,6.41362 10.970993,2.48693 19.435824,3.27087 28.573533,2.64626 9.6497,-0.65961 16.23216,-1.94179 32.6356,-6.357 24.30387,-6.54173 45.60381,-10.51396 60.19125,-11.225064 l 5.37422,-0.261983 5.02185,3.766117 c 24.59431,18.44443 33.69075,24.73935 41.54997,28.75345 l 4.79662,2.44988 3.55481,-1.48532 c 1.95515,-0.81692 7.73263,-2.79327 12.83884,-4.39188 5.67273,-1.77598 13.7851,-5.06573 20.85557,-8.45741 14.64742,-7.02633 21.0321,-9.58729 33.43769,-13.41219 14.27553,-4.40144 24.32446,-6.19869 38.26235,-6.843235 13.53534,-0.625929 18.17245,-0.134297 39.03555,4.138585 17.45588,3.57507 21.55161,4.08122 32.74227,4.04628 l 9.33425,-0.0292 2.71047,12.24755 c 5.57173,25.17641 7.93515,44.06977 8.33176,66.60469 0.53829,30.58544 -2.04432,59.01886 -8.1351,89.5641 -4.9616,24.88242 -10.13733,38.28723 -23.22934,60.16249 -6.03436,10.08274 -41.89423,60.13348 -47.84037,66.77229 -7.93241,8.85649 -13.12086,10.50276 -54.73586,17.36748 -40.5365,6.68682 -45.18357,7.26664 -62.8686,7.84425 -8.80395,0.28755 -17.79634,0.2554 -20.00429,-0.0715 z m 37.16968,-52.28756 c 10.95125,-1.461 23.60097,-4.22332 34.78582,-7.59621 47.73541,-14.39502 78.86654,-38.21678 94.19979,-72.08232 9.1089,-20.11823 14.38267,-46.96613 16.73415,-85.19085 l 0.30797,-5.00614 -6.6906,-3.38374 c -3.67984,-1.86107 -6.85382,-3.3809 -7.0533,-3.37742 -0.19948,0.003 -0.29303,4.58081 -0.20791,10.17184 0.3794,24.91864 -3.55635,51.46349 -10.5701,71.29063 -12.67777,35.83866 -38.65719,59.81088 -82.06906,75.72827 -42.78662,15.68814 -87.18549,17.8238 -123.76165,5.95313 -15.83111,-5.13793 -17.29662,-5.73024 -21.75204,-8.79137 -13.36655,-9.18361 -23.30036,-21.45226 -34.08251,-42.09325 -8.67034,-16.59821 -13.28154,-28.78683 -21.73455,-57.45013 -2.79747,-9.48595 -5.5384,-18.74923 -6.09095,-20.58505 -0.99979,-3.32177 -1.03722,-3.35439 -7.76761,-6.7694 -3.719637,-1.88734 -6.891938,-3.29799 -7.049558,-3.13477 -0.15762,0.16321 1.089236,3.84879 2.770789,8.19015 1.681549,4.34137 6.290029,17.28841 10.241069,28.7712 8.83317,25.67165 13.96782,38.26274 21.19596,51.97643 12.73146,24.1549 21.59841,33.10621 45.92206,46.35895 12.04184,6.561 16.47937,8.521 25.59291,11.30409 12.59766,3.84705 29.40182,6.71835 44.36364,7.58034 5.65727,0.32593 24.23214,-0.7326 32.71568,-1.86438 z M 199.9632,186.01882 c 5.73907,-3.08407 9.03367,-8.64204 8.88477,-14.98857 -0.15036,-6.40882 -3.52631,-11.67437 -9.42253,-14.69653 -2.06301,-1.05741 -3.85802,-1.359 -7.69039,-1.29211 -5.87263,0.10251 -9.04499,1.53199 -12.7004,5.72287 -7.95523,9.12057 -3.49174,23.00636 8.59535,26.7399 2.76503,0.85408 9.48587,0.0445 12.3332,-1.48556 z m 141.14465,-4.18819 c 5.88196,-2.58654 9.62594,-8.73587 9.49235,-15.59079 -0.1922,-9.86236 -8.37355,-16.84595 -18.56658,-15.84844 -7.61834,0.74555 -13.21524,5.58905 -14.81767,12.82306 -2.94348,13.28804 11.10885,24.23739 23.8919,18.61617 z"
       id="path41"
       transform="scale(0.26458334)" />
    <path
       style="fill:#f4d7d7;stroke-width:0.666667"
       d="m 469.59592,182.99896 c -0.2627,-14.7689 -3.08294,-38.45318 -6.57433,-55.21109 -0.55374,-2.65783 -0.90842,-4.93905 -0.78818,-5.06937 0.12024,-0.13033 1.33084,0.10869 2.69022,0.53117 2.20583,0.68554 2.75153,1.34635 5.07489,6.14548 4.37186,9.0305 8.22845,20.84794 9.64737,29.56164 1.21472,7.4597 1.23812,8.39831 0.32915,13.2039 -0.53819,2.84534 -1.91527,7.24594 -3.06018,9.77911 -2.03412,4.50062 -5.38332,9.19328 -6.57619,9.21411 -0.32863,0.006 -0.66287,-3.66399 -0.74275,-8.15495 z"
       id="path42"
       transform="scale(0.26458334)" />
    <path
       style="fill:#f4d7d7;stroke-width:0.666667"
       d="m 50.097028,242.20123 c -9.436503,-6.49755 -10.827976,-8.41494 -14.422204,-19.87317 -3.683803,-11.74379 -4.043894,-14.50913 -4.363851,-33.51242 -0.314378,-18.67193 0.194559,-24.35344 3.070263,-34.27476 1.211137,-4.17848 4.951575,-9.87197 6.503368,-9.89905 0.292671,-0.005 0.744162,2.16234 1.003312,4.81655 4.07808,41.7677 5.617853,53.54715 10.452062,79.9595 1.602058,8.75306 2.847058,15.96359 2.766665,16.02338 -0.08039,0.0598 -2.334719,-1.39822 -5.009615,-3.24003 z"
       id="path43"
       transform="scale(0.26458334)" />
    <path
       style="fill:#1a1a1a;stroke-width:0.264583"
       id="path2"
       d="m 15.587733,47.137813 c 1.458467,-0.2252 2.943124,-0.26217 4.415999,-0.32167 2.369762,-0.129254 4.740768,-0.23368 7.113311,-0.293647 1.702962,-0.05932 3.407209,-0.06256 5.11097,-0.07635 1.017376,-0.01783 2.032042,-0.03752 3.047812,0.02495 0.539374,-7.94e-4 1.083276,0.164406 1.618303,0.06848 0.265515,-0.04578 0.532709,-0.08059 0.799896,-0.114826 0,0 -3.229491,-2.274234 -3.229491,-2.274234 v 0 c -0.255505,0.04368 -0.51181,0.08565 -0.770853,0.101727 -0.509886,-0.01754 -1.019405,-0.04601 -1.529246,-0.06502 -1.00619,-0.03647 -2.011728,0.0041 -3.017878,0.02895 -1.666078,0.04979 -3.331467,0.1201 -4.997683,0.165134 -2.363864,0.100997 -4.727284,0.211646 -7.091289,0.308594 -1.559349,0.03654 -3.118931,0.07953 -4.677499,0.125945 z" />
    <path
       style="fill:#1a1a1a;stroke-width:0.264583"
       id="path3"
       d="m 39.778023,34.432199 c -0.449181,0.344693 -0.924518,0.65338 -1.380464,0.989094 -0.497816,0.335955 -0.894831,0.789199 -1.31029,1.217044 -0.490366,0.531519 -0.960763,1.078203 -1.366542,1.677286 -0.382164,0.573903 -0.767617,1.155335 -1.033983,1.793473 -0.205701,0.528944 -0.317466,1.087152 -0.369536,1.650587 -0.05638,0.650412 -0.111395,1.300787 -0.13825,1.953173 -0.02848,0.583478 -0.02709,1.165723 0.03256,1.74684 0.04828,0.519843 0.143806,1.032899 0.249528,1.5436 0.123354,0.493358 0.292873,0.969537 0.547429,1.410037 0.349604,0.54761 0.822878,0.978466 1.382384,1.308258 1.266127,0.746303 2.543829,1.472793 3.815742,2.209189 1.576279,0.753668 3.257568,1.267593 4.930682,1.758937 1.782136,0.489352 3.59949,0.839438 5.429462,1.090351 1.70144,0.257045 3.418345,0.373237 5.131657,0.515807 1.447657,0.150853 2.904154,0.154382 4.357815,0.17765 0.964835,0.0047 1.900669,-0.09107 2.783226,-0.491369 0.651899,-0.379857 1.254638,-0.866589 1.746681,-1.441214 0.344427,-0.402233 0.461492,-0.623044 0.742794,-1.068279 0.716968,-1.256028 0.956943,-2.67979 1.105596,-4.097552 0.110011,-1.383596 0.109027,-2.765677 -0.07357,-4.141433 -0.188227,-0.953654 -0.326496,-1.953041 -0.757801,-2.836712 -0.07232,-0.148175 -0.16251,-0.286943 -0.243764,-0.430416 -0.336814,-0.50324 -0.790834,-0.922544 -1.319024,-1.221052 -3.820213,-2.15899 -2.387886,-1.750584 -4.327311,-2.233594 -1.057135,-0.206177 -2.11179,-0.44136 -3.177971,-0.598292 -0.262859,-0.03869 -1.484723,-0.176228 -1.742493,-0.205706 -1.685179,-0.159326 -3.365461,-0.364492 -5.050327,-0.526349 -1.369267,-0.109407 -2.733273,-0.270435 -4.099598,-0.410485 -0.809844,-0.07178 -1.621837,-0.114302 -2.434711,-0.124081 -0.43452,-0.0053 -0.868844,0.0071 -1.303311,0.01281 -0.212426,1.2e-4 -0.424821,0.004 -0.637239,0.0048 0,0 3.215458,2.326553 3.215458,2.326553 v 0 c 0.20515,-0.0074 0.410392,-0.01209 0.615497,-0.02096 0.423868,-0.01188 0.847731,-0.01876 1.271747,-0.02225 0.780933,0.0019 1.562031,0.02519 2.340046,0.09671 1.345007,0.118512 2.687318,0.267946 4.03442,0.363426 1.677495,0.168109 3.352863,0.35654 5.030727,0.521111 1.669301,0.204541 3.337062,0.456829 4.958651,0.914701 1.597274,0.559909 0.674516,0.276834 -2.294787,-1.491938 -0.124875,-0.07439 0.254852,0.140066 0.378873,0.215869 0.226348,0.138342 0.521817,0.334946 0.716942,0.516405 0.109873,0.102175 0.203006,0.220988 0.304511,0.331481 0.246737,0.352131 0.330809,0.434134 0.502883,0.838531 0.311296,0.731591 0.458891,1.529493 0.612587,2.304108 0.204486,1.34947 0.25159,2.70787 0.132668,4.069855 -0.125548,1.364637 -0.3365,2.728807 -1.041961,3.931103 -0.642443,1.013791 -1.314686,1.765914 -2.429651,2.27027 -0.844438,0.319638 -1.729009,0.413946 -2.630233,0.410052 -1.433663,0.0044 -2.865999,-0.04507 -4.295,-0.165587 -1.704261,-0.129257 -3.408363,-0.269227 -5.099889,-0.521407 -1.813486,-0.270959 -3.621177,-0.606856 -5.382583,-1.123759 -1.689354,-0.513956 -3.395252,-1.041038 -4.953272,-1.886659 6.358742,3.696734 2.321486,1.486249 1.689552,0.866328 -0.07212,-0.07075 -0.284443,-0.349372 -0.346956,-0.429803 -0.307179,-0.377981 -0.467106,-0.818094 -0.591132,-1.285825 -0.165727,-0.481361 -0.213993,-0.998053 -0.289732,-1.49925 -0.07698,-0.56451 -0.0874,-1.129168 -0.06987,-1.698842 0.01741,-0.644613 0.04706,-1.2899 0.149109,-1.927678 0.03471,-0.528574 0.102748,-1.05718 0.305599,-1.551387 0.234688,-0.619615 0.587404,-1.187442 0.960493,-1.732582 0.409093,-0.567938 0.861115,-1.104836 1.34485,-1.61086 0.414079,-0.403426 0.811086,-0.825833 1.284722,-1.162124 0.456851,-0.332346 0.926502,-0.649052 1.415682,-0.932064 z" />
    <path
       style="fill:#1a1a1a;stroke-width:0.264583"
       id="path4"
       d="m 67.085445,46.238918 c 0.979326,-0.06052 1.959747,-0.09129 2.940722,-0.105945 0.78596,-0.0036 1.571985,-0.0013 2.357916,0.0065 0,0 -3.188803,-2.308307 -3.188803,-2.308307 v 0 c -0.742868,0.03501 -1.48608,0.06361 -2.229417,0.08654 -1.029348,0.02058 -2.058704,0.02233 -3.088065,-7.94e-4 z" />
    <path
       style="fill:#1a1a1a;stroke-width:0.264583"
       id="path5"
       d="m 73.338012,37.583312 c -0.773552,0.03124 -1.54758,0.06699 -2.298354,0.267615 -0.589885,0.24346 -1.049205,0.637593 -1.381916,1.175685 -0.377333,0.688644 -0.391403,1.498814 -0.536104,2.256776 -0.16959,0.827522 -0.303943,1.663211 -0.351597,2.506991 -0.06444,0.739405 -0.01849,1.466538 0.09442,2.197529 0.11435,0.812051 0.391377,1.578546 0.713078,2.327701 0.199697,0.475964 0.549477,0.848169 0.995294,1.109276 3.513961,2.058054 2.485226,1.580507 4.244801,2.363557 1.788102,0.62398 3.674044,0.840261 5.545674,1.047258 2.735025,0.316902 5.482083,0.489776 8.231178,0.624242 2.401488,0.09137 4.807759,0.171389 7.210816,0.103786 1.76674,-0.151181 3.527915,-0.395079 5.269678,-0.728107 0.73343,-0.147101 1.49783,-0.262276 2.11799,-0.704564 0.57092,-0.501566 0.7442,-1.394408 0.91239,-2.103536 0.37915,-1.52986 0.48078,-3.092453 0.47149,-4.662413 -0.0347,-1.359091 -0.16749,-2.712046 -0.4755,-4.036891 -0.16412,-0.671407 -0.40201,-1.322372 -0.66938,-1.958846 -0.19749,-0.441841 -0.4485,-0.850675 -0.80187,-1.182121 -3.258685,-1.883865 -2.736755,-2.290199 -5.293466,-1.961393 -1.85401,0.198755 -3.693618,0.507018 -5.540571,0.759023 -2.12694,0.281083 -4.272365,0.387213 -6.415297,0.451366 -1.609518,0.04428 -3.21959,0.05566 -4.829569,0.06953 -1.065744,0.05057 -2.128181,-0.04178 -3.192185,-0.08067 -0.715896,-0.02503 -1.432017,-0.03946 -2.148303,-0.04533 -0.339989,-0.0037 -0.679862,7.94e-4 -1.019765,0.0079 -0.317103,0.0227 -0.617241,0.134197 -0.936217,0.166534 -0.242877,0.01021 -0.479878,0.06982 -0.71863,0.111459 0,0 3.207745,2.250895 3.207745,2.250895 v 0 c 0.242104,-0.03809 0.484391,-0.06534 0.728369,-0.08877 0.306887,-0.04877 0.605655,-0.145889 0.920189,-0.123283 0.330605,-0.0054 0.661122,-0.01344 0.99168,-0.02072 0.694007,-0.01066 1.388334,-0.0096 2.082014,0.01767 1.05238,0.04518 2.105022,0.07852 3.158156,0.02938 1.580931,-0.0383 3.161906,-0.07989 4.742075,-0.142515 2.146313,-0.09725 4.29324,-0.209871 6.425282,-0.490255 1.876914,-0.27119 3.757123,-0.535625 5.650943,-0.6565 0.4291,-0.02013 0.62898,-0.04625 1.03757,-0.01098 1.33223,0.115041 3.79395,2.184966 -2.518301,-1.672842 0.442362,0.1768 0.692472,0.588947 0.920279,0.989537 0.302082,0.616365 0.532602,1.268148 0.737022,1.922626 0.41254,1.300047 0.59663,2.653875 0.65483,4.014875 0.0101,1.562415 -0.11848,3.007972 -0.54339,4.516935 -0.16876,0.630902 -0.31024,1.385541 -0.847539,1.813952 -0.576342,0.367485 -1.26986,0.483132 -1.92201,0.651833 -1.691166,0.367247 -3.405825,0.648554 -5.135573,0.743849 -2.365518,0.06477 -4.732698,0.04786 -7.09707,-0.05561 -2.760848,-0.139798 -5.520674,-0.319037 -8.262962,-0.67986 -1.912461,-0.255929 -3.855664,-0.503833 -5.644369,-1.270886 -1.458981,-0.71078 -0.700432,-0.356754 2.341967,1.423358 0.127749,0.07474 -0.256796,-0.147545 -0.380833,-0.228301 -0.27591,-0.179642 -0.515692,-0.364464 -0.658752,-0.668526 -0.358412,-0.709845 -0.671496,-1.45139 -0.791792,-2.242695 -0.02212,-0.1464 -0.09971,-0.636575 -0.111043,-0.798473 -0.03064,-0.437695 0.0098,-0.881079 5.29e-4,-1.319165 0.03817,-0.830747 0.111406,-1.660472 0.292952,-2.473989 0.146717,-0.70207 0.203878,-1.448991 0.523211,-2.097654 0.300302,-0.445328 0.677363,-0.782362 1.204696,-0.938411 0.750215,-0.168746 1.520306,-0.196157 2.287336,-0.167627 z" />
    <path
       style="fill:#1a1a1a;stroke-width:0.264583"
       id="path6"
       d="m 104.68236,45.31186 c 1.05563,-0.279241 2.13227,-0.462788 3.20934,-0.636738 1.58061,-0.336865 3.17999,-0.55961 4.77991,-0.778584 1.00233,-0.173329 2.01992,-0.275641 3.01934,-0.466024 0.13168,-0.02508 0.89032,-0.211667 1.04377,-0.249082 0.76258,-0.173482 1.50838,-0.4128 2.27666,-0.561104 0.5781,-0.178869 1.20032,-0.177506 1.77739,-0.348853 0.33168,-0.125794 0.68006,-0.166579 1.02674,-0.235149 0,0 -3.21622,-2.245339 -3.21622,-2.245339 v 0 c -0.357,0.06562 -0.7161,0.109927 -1.05533,0.246616 -0.57162,0.123642 -1.14309,0.24793 -1.71562,0.367226 -0.76055,0.165198 -1.50547,0.394367 -2.25698,0.595799 -1.29834,0.33991 -2.6226,0.573289 -3.95424,0.738579 -1.61104,0.213527 -3.21293,0.482137 -4.81282,0.767123 -1.13574,0.18175 -2.2733,0.362341 -3.40082,0.589187 z" />
    <circle
       id="path7"
       style="fill:#1a1a1a;stroke:#000000;stroke-width:0.264583"
       cx="128.98221"
       cy="1.2769223"
       r="0.02349483" />
  </g>
</svg>
